<svg xmlns="http://www.w3.org/2000/svg" width="33.001" height="20" viewBox="0 0 33.001 20">
  <g id="Vector_Smart_Object" data-name="Vector Smart Object" transform="translate(-156.407 -164.653)">
    <path id="Контур_1" data-name="Контур 1" d="M189.407,174.654a9.9,9.9,0,1,1-19.8,0h0a9.9,9.9,0,1,1,19.8,0Z" fill="#ffb600"/>
    <path id="Контур_2" data-name="Контур 2" d="M179.507,164.653a9.976,9.976,0,0,1,9.9,10h0a9.9,9.9,0,1,1-19.8,0" fill="#f7981d"/>
    <path id="Контур_3" data-name="Контур 3" d="M179.507,164.653a9.976,9.976,0,0,1,9.9,10h0a9.943,9.943,0,0,1-9.9,10" fill="#ff8500"/>
    <path id="Контур_4" data-name="Контур 4" d="M166.2,164.653a10,10,0,1,0,6.757,17.408h0a9.45,9.45,0,0,0,1-1.058h-2.043a12.09,12.09,0,0,1-.733-1h3.51a6.859,6.859,0,0,0,.576-1.058H170.6a6.371,6.371,0,0,1-.419-1.058h5.448a10.6,10.6,0,0,0,.524-3.175,13.849,13.849,0,0,0-.209-2.116h-6.076a7.81,7.81,0,0,1,.262-1.058h5.447a6.291,6.291,0,0,0-.419-1.058H170.55a10.642,10.642,0,0,1,.576-1.058h3.51a5.027,5.027,0,0,0-.786-1.058h-1.938a9.01,9.01,0,0,1,.995-1,9.611,9.611,0,0,0-6.652-2.593C166.255,164.653,166.255,164.653,166.2,164.653Z" fill="#ff5050"/>
    <path id="Контур_5" data-name="Контур 5" d="M156.407,174.654a9.881,9.881,0,0,0,16.552,7.408h0a9.45,9.45,0,0,0,1-1.058h-2.043a12.09,12.09,0,0,1-.733-1h3.51a6.859,6.859,0,0,0,.576-1.058H170.6a6.371,6.371,0,0,1-.419-1.058h5.448a10.6,10.6,0,0,0,.524-3.175,13.849,13.849,0,0,0-.209-2.116h-6.076a7.81,7.81,0,0,1,.262-1.058h5.447a6.291,6.291,0,0,0-.419-1.058H170.55a10.642,10.642,0,0,1,.576-1.058h3.51a5.027,5.027,0,0,0-.786-1.058h-1.938a9.01,9.01,0,0,1,.995-1,9.611,9.611,0,0,0-6.652-2.593H166.2" fill="#e52836"/>
    <path id="Контур_6" data-name="Контур 6" d="M166.307,184.654a9.959,9.959,0,0,0,6.652-2.593h0a9.45,9.45,0,0,0,1-1.058h-2.043a12.09,12.09,0,0,1-.733-1h3.51a6.859,6.859,0,0,0,.576-1.058H170.6a6.371,6.371,0,0,1-.419-1.058h5.448a10.6,10.6,0,0,0,.524-3.175,13.849,13.849,0,0,0-.209-2.116h-6.076a7.81,7.81,0,0,1,.262-1.058h5.447a6.291,6.291,0,0,0-.419-1.058H170.55a10.642,10.642,0,0,1,.576-1.058h3.51a5.027,5.027,0,0,0-.786-1.058h-1.938a9.01,9.01,0,0,1,.995-1,9.611,9.611,0,0,0-6.652-2.593H166.2" fill="#cb2026"/>
    <g id="Сгруппировать_1" data-name="Сгруппировать 1">
      <path id="Контур_7" data-name="Контур 7" d="M169.817,177.193l.157-.9a2.244,2.244,0,0,1-.262.053c-.366,0-.419-.211-.366-.317l.314-1.852h.576l.157-1.006h-.524l.1-.635h-1.048s-.628,3.492-.628,3.916a.79.79,0,0,0,.838.9A1.591,1.591,0,0,0,169.817,177.193Z" fill="#fff"/>
      <path id="Контур_8" data-name="Контур 8" d="M170.183,175.5a1.674,1.674,0,0,0,1.833,1.852,2.7,2.7,0,0,0,1.1-.159l.21-1a3.114,3.114,0,0,1-1.1.265c-1.153,0-.943-.847-.943-.847h2.148a6.915,6.915,0,0,0,.157-.952,1.427,1.427,0,0,0-1.518-1.534C170.969,173.013,170.183,174.177,170.183,175.5Zm1.833-1.534c.576,0,.471.688.471.74h-1.152C171.336,174.654,171.44,173.966,172.016,173.966Z" fill="#fff"/>
      <path id="Контур_9" data-name="Контур 9" d="M178.669,177.193l.209-1.164a2.552,2.552,0,0,1-.891.265c-.733,0-1.048-.582-1.048-1.217,0-1.27.629-1.958,1.362-1.958a1.737,1.737,0,0,1,.943.317l.157-1.111a3.649,3.649,0,0,0-1.2-.265c-1.2,0-2.41,1.058-2.41,3.069,0,1.323.628,2.222,1.885,2.222A4.661,4.661,0,0,0,178.669,177.193Z" fill="#fff"/>
      <path id="Контур_10" data-name="Контур 10" d="M164.054,173.013a3.668,3.668,0,0,0-1.257.212l-.157.9a3.065,3.065,0,0,1,1.153-.212c.366,0,.681.053.681.371,0,.211-.052.264-.052.264h-.471c-.891,0-1.886.371-1.886,1.588,0,.952.628,1.164,1,1.164a1.567,1.567,0,0,0,1.1-.476l-.052.423h.943l.419-2.91A1.245,1.245,0,0,0,164.054,173.013Zm.21,2.381c0,.159-.1,1-.733,1a.411.411,0,0,1-.419-.423c0-.265.157-.636.943-.636A.813.813,0,0,0,164.264,175.394Z" fill="#fff"/>
      <path id="Контур_11" data-name="Контур 11" d="M166.464,177.3a1.345,1.345,0,0,0,1.571-1.376c0-1.322-1.257-1.058-1.257-1.587,0-.265.209-.37.576-.37.157,0,.733.053.733.053l.157-.952a3.939,3.939,0,0,0-1-.106c-.786,0-1.571.317-1.571,1.376,0,1.217,1.309,1.111,1.309,1.587,0,.317-.366.371-.628.371a3.4,3.4,0,0,1-.943-.159l-.157.952C165.311,177.193,165.574,177.3,166.464,177.3Z" fill="#fff"/>
      <path id="Контур_12" data-name="Контур 12" d="M187.364,172.167l-.209,1.428a1.451,1.451,0,0,0-1-.529c-.943,0-1.781,1.164-1.781,2.539,0,.847.419,1.746,1.309,1.746a1.4,1.4,0,0,0,1-.423l-.053.37h1.048l.786-5.079Zm-.471,2.8c0,.582-.261,1.323-.838,1.323-.367,0-.576-.317-.576-.847,0-.846.366-1.376.838-1.376C186.683,174.071,186.893,174.336,186.893,174.971Z" fill="#fff"/>
      <path id="Контур_13" data-name="Контур 13" d="M158.345,177.246l.629-3.81.1,3.81h.733l1.361-3.81-.576,3.81h1.1l.838-5.08h-1.728l-1.048,3.122-.052-3.122h-1.519l-.838,5.08Z" fill="#fff"/>
      <path id="Контур_14" data-name="Контур 14" d="M174.583,177.246c.314-1.747.366-3.175,1.1-2.91a4.215,4.215,0,0,1,.366-1.217h-.209c-.471,0-.838.635-.838.635l.1-.582h-.995l-.681,4.127h1.153Z" fill="#fff"/>
      <path id="Контур_15" data-name="Контур 15" d="M181.078,173.013a3.673,3.673,0,0,0-1.257.212l-.157.9a3.065,3.065,0,0,1,1.153-.212c.366,0,.681.053.681.371,0,.211-.052.264-.052.264h-.471c-.891,0-1.886.371-1.886,1.588,0,.952.629,1.164,1,1.164a1.567,1.567,0,0,0,1.1-.476l-.052.423h.943l.419-2.91A1.228,1.228,0,0,0,181.078,173.013Zm.262,2.381c0,.159-.1,1-.733,1a.411.411,0,0,1-.419-.423c0-.265.158-.636.943-.636C181.288,175.394,181.288,175.394,181.34,175.394Z" fill="#fff"/>
      <path id="Контур_16" data-name="Контур 16" d="M183.383,177.246c.314-1.747.367-3.175,1.1-2.91a4.186,4.186,0,0,1,.367-1.217h-.209c-.472,0-.838.635-.838.635l.1-.582h-1l-.681,4.127h1.152Z" fill="#fff"/>
    </g>
    <g id="Сгруппировать_2" data-name="Сгруппировать 2">
      <path id="Контур_17" data-name="Контур 17" d="M168.193,176.453a.79.79,0,0,0,.838.9,1.971,1.971,0,0,0,.786-.159l.157-.9a2.244,2.244,0,0,1-.262.053c-.366,0-.419-.211-.366-.317l.314-1.852h.576l.157-1.006h-.524l.1-.635" fill="#dce5e5"/>
      <path id="Контур_18" data-name="Контур 18" d="M170.707,175.5c0,1.482.471,1.852,1.309,1.852a2.7,2.7,0,0,0,1.1-.159l.21-1a3.114,3.114,0,0,1-1.1.265c-1.153,0-.943-.847-.943-.847h2.148a6.915,6.915,0,0,0,.157-.952,1.427,1.427,0,0,0-1.518-1.534C170.969,173.013,170.707,174.177,170.707,175.5Zm1.309-1.534c.576,0,.681.688.681.74h-1.362C171.336,174.654,171.44,173.966,172.016,173.966Z" fill="#dce5e5"/>
      <path id="Контур_19" data-name="Контур 19" d="M178.669,177.193l.209-1.164a2.552,2.552,0,0,1-.891.265c-.733,0-1.048-.582-1.048-1.217,0-1.27.629-1.958,1.362-1.958a1.737,1.737,0,0,1,.943.317l.157-1.111a3.649,3.649,0,0,0-1.2-.265c-1.2,0-1.886,1.058-1.886,3.069,0,1.323.1,2.222,1.362,2.222A4.661,4.661,0,0,0,178.669,177.193Z" fill="#dce5e5"/>
      <path id="Контур_20" data-name="Контур 20" d="M162.64,174.177a3.073,3.073,0,0,1,1.153-.211c.366,0,.681.053.681.37,0,.211-.052.265-.052.265h-.471c-.891,0-1.886.37-1.886,1.587,0,.952.628,1.164,1,1.164a1.566,1.566,0,0,0,1.1-.476l-.052.423h.943l.419-2.91c0-1.217-1.047-1.27-1.466-1.27m.786,2.275a1.719,1.719,0,0,1-1.257,1,.411.411,0,0,1-.419-.423c0-.265.157-.636.943-.636A4.2,4.2,0,0,0,164.788,175.394Z" fill="#dce5e5"/>
      <path id="Контур_21" data-name="Контур 21" d="M165.311,177.193a4.389,4.389,0,0,0,1.2.106,1.346,1.346,0,0,0,1.572-1.376c0-1.322-1.258-1.058-1.258-1.587,0-.265.21-.37.576-.37.157,0,.733.053.733.053l.157-.952a3.933,3.933,0,0,0-1-.106c-.786,0-1.047.317-1.047,1.376,0,1.217.786,1.111.786,1.587,0,.317-.367.371-.628.371" fill="#dce5e5"/>
      <path id="Контур_22" data-name="Контур 22" d="M187.155,173.6a1.451,1.451,0,0,0-1-.529c-.943,0-1.257,1.164-1.257,2.539,0,.847-.1,1.746.786,1.746a1.4,1.4,0,0,0,1-.423l-.052.37h1.047l.786-5.079m-1.361,2.751c0,.582-.472,1.323-1.048,1.323-.367,0-.576-.317-.576-.847,0-.846.366-1.376.838-1.376A.805.805,0,0,1,187.1,174.971Z" fill="#dce5e5"/>
      <path id="Контур_23" data-name="Контур 23" d="M158.345,177.246l.629-3.81.1,3.81h.733l1.361-3.81-.576,3.81h1.1l.838-5.08h-1.309l-1.467,3.122-.052-3.122h-.576l-1.781,5.08Z" fill="#dce5e5"/>
      <path id="Контур_24" data-name="Контур 24" d="M173.483,177.246h1.1c.314-1.747.366-3.175,1.1-2.91a4.215,4.215,0,0,1,.366-1.217h-.209c-.471,0-.838.635-.838.635l.1-.582" fill="#dce5e5"/>
      <path id="Контур_25" data-name="Контур 25" d="M179.664,174.177a3.073,3.073,0,0,1,1.153-.211c.366,0,.681.053.681.37,0,.211-.052.265-.052.265h-.471c-.891,0-1.886.37-1.886,1.587,0,.952.629,1.164,1,1.164a1.567,1.567,0,0,0,1.1-.476l-.052.423h.943l.419-2.91c0-1.217-1.048-1.27-1.467-1.27m.786,2.275a1.719,1.719,0,0,1-1.257,1,.411.411,0,0,1-.419-.423c0-.265.157-.636.943-.636A4.529,4.529,0,0,0,181.812,175.394Z" fill="#dce5e5"/>
      <path id="Контур_26" data-name="Контур 26" d="M182.283,177.246h1.1c.314-1.747.367-3.175,1.1-2.91a4.186,4.186,0,0,1,.367-1.217h-.209c-.472,0-.838.635-.838.635l.1-.582" fill="#dce5e5"/>
    </g>
  </g>
</svg>
