<svg xmlns="http://www.w3.org/2000/svg" width="75" height="20" viewBox="0 0 75 20">
  <g id="Vector_Smart_Object" data-name="Vector Smart Object" transform="translate(-297.917 -340.001)">
    <path id="Контур_36" data-name="Контур 36" d="M355.894,345.219h-4.048c-.238,0-.477.247-.595.5l-1.668,10.932c0,.249.12.372.358.372h2.143c.238,0,.357-.124.357-.372l.477-3.106a.552.552,0,0,1,.595-.5h1.31q4.107,0,4.643-4.1a3.369,3.369,0,0,0-.476-2.733,4.665,4.665,0,0,0-3.095-.993m.477,4.1c-.238,1.49-1.31,1.49-2.381,1.49h-.715l.477-2.857c0-.124.118-.249.357-.249h.238c.715,0,1.428,0,1.786.5.238.125.238.5.238,1.118" fill="#139ad6"/>
    <g id="Сгруппировать_4" data-name="Сгруппировать 4">
      <path id="Контур_37" data-name="Контур 37" d="M326.727,345.219H322.68c-.238,0-.477.247-.595.5l-1.668,10.932c0,.249.12.372.358.372h1.9c.238,0,.477-.247.595-.5l.477-2.982a.552.552,0,0,1,.595-.5h1.31q4.107,0,4.643-4.1a3.369,3.369,0,0,0-.477-2.733,4.449,4.449,0,0,0-3.095-.993m.477,4.1c-.238,1.49-1.31,1.49-2.381,1.49h-.595l.475-2.857c0-.124.12-.249.358-.249h.238c.713,0,1.428,0,1.785.5a1.379,1.379,0,0,1,.12,1.118" fill="#263b80"/>
      <path id="Контур_38" data-name="Контур 38" d="M338.989,349.194h-1.9c-.118,0-.357.124-.357.249l-.12.621-.118-.249a2.739,2.739,0,0,0-2.261-.869,4.648,4.648,0,0,0-4.406,4.1,3.821,3.821,0,0,0,.715,3.106,2.933,2.933,0,0,0,2.5.994,3.736,3.736,0,0,0,2.738-1.118l-.118.621c0,.249.118.372.357.372H337.8c.238,0,.477-.247.595-.5l1.071-6.957c-.118-.124-.357-.372-.477-.372m-2.738,3.975a2.333,2.333,0,0,1-2.261,1.988,1.86,1.86,0,0,1-1.31-.5,2.736,2.736,0,0,1-.357-1.49,2.214,2.214,0,0,1,2.142-1.987,2.117,2.117,0,0,1,1.31.5,2.229,2.229,0,0,1,.477,1.492" fill="#263b80"/>
    </g>
    <path id="Контур_39" data-name="Контур 39" d="M368.037,349.194h-1.9c-.12,0-.358.124-.358.249l-.118.621-.118-.249a2.74,2.74,0,0,0-2.263-.869,4.646,4.646,0,0,0-4.4,4.1,3.821,3.821,0,0,0,.713,3.106,2.938,2.938,0,0,0,2.5.994,3.74,3.74,0,0,0,2.738-1.118l-.12.621c0,.249.12.372.358.372h1.785c.238,0,.477-.247.6-.5l1.071-6.957c-.12-.124-.238-.372-.477-.372m-2.738,3.975a2.334,2.334,0,0,1-2.263,1.988,1.86,1.86,0,0,1-1.31-.5,2.748,2.748,0,0,1-.357-1.49,2.216,2.216,0,0,1,2.143-1.987,2.121,2.121,0,0,1,1.31.5,1.465,1.465,0,0,1,.477,1.492" fill="#139ad6"/>
    <path id="Контур_40" data-name="Контур 40" d="M349.347,349.194h-2.024a.61.61,0,0,0-.477.249l-2.618,4.224-1.191-3.976a.549.549,0,0,0-.595-.372h-1.9c-.238,0-.357.249-.357.5l2.143,6.583L340.3,359.38c-.118.249,0,.621.238.621h1.9a.61.61,0,0,0,.477-.249l6.547-9.814c.357-.372.118-.744-.118-.744" fill="#263b80"/>
    <path id="Контур_41" data-name="Контур 41" d="M370.3,345.591l-1.666,11.181c0,.247.118.372.357.372h1.666c.238,0,.477-.249.6-.5l1.666-10.932c0-.249-.12-.372-.357-.372h-1.906c-.118-.124-.237,0-.357.249" fill="#139ad6"/>
    <path id="Контур_42" data-name="Контур 42" d="M311.608,341.491c-.833-.993-2.381-1.49-4.524-1.49h-5.952a1.033,1.033,0,0,0-.833.746l-2.381,16.272a.562.562,0,0,0,.477.622h3.691l.952-6.088v.249a1.037,1.037,0,0,1,.833-.746h1.786c3.453,0,6.071-1.49,6.9-5.59v-.372h0a4.468,4.468,0,0,0-.952-3.6" fill="#263b80"/>
    <path id="Контур_43" data-name="Контур 43" d="M312.441,345.094h0v.372c-.833,4.224-3.453,5.59-6.905,5.59h-1.785a1.034,1.034,0,0,0-.833.746l-1.191,7.578a.447.447,0,0,0,.477.5H305.3a.676.676,0,0,0,.715-.622v-.124l.595-3.851v-.249a.677.677,0,0,1,.715-.621h.477c2.976,0,5.357-1.242,5.952-4.968a4.736,4.736,0,0,0-.595-3.728,1.241,1.241,0,0,0-.715-.621" fill="#139ad6"/>
    <path id="Контур_44" data-name="Контур 44" d="M311.608,344.722c-.12,0-.238-.125-.357-.125a.429.429,0,0,1-.358-.124,6,6,0,0,0-1.548-.125H304.7a.423.423,0,0,0-.357.125.686.686,0,0,0-.357.621l-.953,6.46v.249a1.037,1.037,0,0,1,.833-.746h1.786c3.453,0,6.071-1.49,6.9-5.59a.468.468,0,0,1,.12-.372c-.238-.124-.358-.249-.6-.249-.358-.124-.358-.124-.477-.124" fill="#232c65"/>
  </g>
</svg>
