<svg xmlns="http://www.w3.org/2000/svg" width="28" height="20" viewBox="0 0 28 20">
  <g id="Vector_Smart_Object" data-name="Vector Smart Object" transform="translate(-135.333 -144.669)">
    <path id="Контур_27" data-name="Контур 27" d="M163.333,162.955a1.685,1.685,0,0,1-1.655,1.714h-24.69a1.685,1.685,0,0,1-1.655-1.714V146.383a1.685,1.685,0,0,1,1.655-1.714h24.69a1.685,1.685,0,0,1,1.655,1.714v16.571Z" fill="#fff"/>
    <path id="Контур_28" data-name="Контур 28" d="M141.548,154.784l-.657-3.267a.787.787,0,0,0-.848-.6h-3.014l-.027.149A6.253,6.253,0,0,1,141.548,154.784Z" fill="#f79f1a"/>
    <g id="Сгруппировать_3" data-name="Сгруппировать 3">
      <path id="Контур_29" data-name="Контур 29" d="M148.532,150.981h-1.948l-1.216,7.393h1.944Z" fill="#059bbf"/>
      <path id="Контур_30" data-name="Контур 30" d="M142.735,158.367l3.063-7.381h-2.061l-1.906,5.043-.2-.761a7.81,7.81,0,0,0-2.694-3.064l1.742,6.166Z" fill="#059bbf"/>
      <path id="Контур_31" data-name="Контур 31" d="M154.087,155.958c.007-.839-.513-1.48-1.635-2.008-.681-.342-1.1-.57-1.092-.916,0-.306.352-.636,1.114-.636a3.484,3.484,0,0,1,1.456.284l.176.083.264-1.6a4.895,4.895,0,0,0-1.744-.309c-1.923,0-3.276,1-3.288,2.439-.012,1.063.967,1.655,1.705,2.009.757.361,1.011.592,1.006.916,0,.5-.6.721-1.163.721a3.959,3.959,0,0,1-1.833-.388l-.249-.118-.274,1.657a5.938,5.938,0,0,0,2.167.393C152.743,158.483,154.073,157.494,154.087,155.958Z" fill="#059bbf"/>
      <path id="Контур_32" data-name="Контур 32" d="M156.4,157.266l2.491,0c.059.257.237,1.108.237,1.108h1.8l-1.576-7.388h-1.5a.965.965,0,0,0-1.019.612l-2.89,6.776h2.045S156.325,157.466,156.4,157.266Zm1.334-3.58c-.009.02.162-.428.259-.706l.132.637s.372,1.766.45,2.136H156.96C157.121,155.328,157.734,153.686,157.734,153.686Z" fill="#059bbf"/>
      <path id="Контур_33" data-name="Контур 33" d="M161.678,144.669h-24.69a1.685,1.685,0,0,0-1.655,1.714v1.779h28v-1.779A1.685,1.685,0,0,0,161.678,144.669Z" fill="#059bbf"/>
    </g>
    <path id="Контур_34" data-name="Контур 34" d="M161.678,164.669h-24.69a1.685,1.685,0,0,1-1.655-1.714v-1.779h28v1.779A1.685,1.685,0,0,1,161.678,164.669Z" fill="#f79f1a"/>
    <path id="Контур_35" data-name="Контур 35" d="M136.51,162.955V146.383a1.686,1.686,0,0,1,1.655-1.714h-1.177a1.685,1.685,0,0,0-1.655,1.714v16.571a1.685,1.685,0,0,0,1.655,1.714h1.177A1.686,1.686,0,0,1,136.51,162.955Z" fill="#202121" opacity="0.15" style="isolation: isolate"/>
  </g>
</svg>
