<svg xmlns="http://www.w3.org/2000/svg" width="105.17" height="105" viewBox="0 0 105.17 105">
  <path id="Shape_22" data-name="Shape 22" d="M174.423,5973.843a2.161,2.161,0,1,1,2.161,2.157A2.161,2.161,0,0,1,174.423,5973.843Zm7.208-7.193a2.16,2.16,0,1,1,2.16,2.16A2.159,2.159,0,0,1,181.631,5966.65Zm-14.411,0a2.16,2.16,0,1,1,2.161,2.16A2.161,2.161,0,0,1,167.219,5966.65Zm21.61-7.19a2.16,2.16,0,1,1,2.16,2.16A2.16,2.16,0,0,1,188.83,5959.46Zm-14.41,0a2.16,2.16,0,1,1,2.16,2.16A2.16,2.16,0,0,1,174.42,5959.46Zm-14.234.838a2.161,2.161,0,0,1,3.982-1.68,2.161,2.161,0,0,1-3.982,1.68Zm35.845-8.028a2.16,2.16,0,1,1,2.16,2.16A2.16,2.16,0,0,1,196.03,5952.27Zm-14.4,0a2.16,2.16,0,1,1,2.16,2.16A2.159,2.159,0,0,1,181.631,5952.27Zm-14.411,0a2.16,2.16,0,1,1,2.161,2.16A2.161,2.161,0,0,1,167.219,5952.27Zm-12.246,2.155a2.164,2.164,0,0,1-1.992-1.32,2.162,2.162,0,0,1,0-1.678,2.163,2.163,0,0,1,1.992-1.318h0a2.158,2.158,0,0,1,0,4.316Zm19.449-9.351a2.161,2.161,0,1,1,2.161,2.158A2.161,2.161,0,0,1,174.423,5945.074Zm-14.237.841a2.161,2.161,0,0,1,3.982-1.681,2.161,2.161,0,0,1-3.982,1.681Zm43.054-.844a2.16,2.16,0,1,1,2.161,2.16A2.161,2.161,0,0,1,203.239,5945.071Zm-14.41,0a2.16,2.16,0,1,1,2.16,2.16A2.161,2.161,0,0,1,188.83,5945.071Zm-43.219,0a2.16,2.16,0,1,1,2.16,2.16A2.16,2.16,0,0,1,145.61,5945.071Zm64.829-7.19a2.16,2.16,0,1,1,2.16,2.16A2.161,2.161,0,0,1,210.44,5937.881Zm-14.41,0a2.16,2.16,0,1,1,2.16,2.16A2.161,2.161,0,0,1,196.03,5937.881Zm-14.4,0a2.16,2.16,0,1,1,2.16,2.16A2.16,2.16,0,0,1,181.631,5937.881Zm-14.411,0a2.16,2.16,0,1,1,2.161,2.16A2.161,2.161,0,0,1,167.219,5937.881Zm-14.41,0a2.16,2.16,0,1,1,2.161,2.16A2.161,2.161,0,0,1,152.809,5937.881Zm-14.4,0a2.16,2.16,0,1,1,2.16,2.16A2.161,2.161,0,0,1,138.41,5937.881Zm79.23-7.191a2.16,2.16,0,1,1,2.16,2.16A2.16,2.16,0,0,1,217.64,5930.689Zm-14.4,0a2.16,2.16,0,1,1,2.161,2.16A2.161,2.161,0,0,1,203.239,5930.689Zm-14.41,0a2.16,2.16,0,1,1,2.16,2.16A2.16,2.16,0,0,1,188.83,5930.689Zm-14.41,0a2.16,2.16,0,1,1,2.16,2.16A2.16,2.16,0,0,1,174.42,5930.689Zm-28.809,0a2.16,2.16,0,1,1,2.16,2.16A2.159,2.159,0,0,1,145.61,5930.689Zm-14.41,0a2.16,2.16,0,1,1,2.16,2.16A2.159,2.159,0,0,1,131.2,5930.689Zm28.985.841a2.161,2.161,0,0,1,3.982-1.68,2.161,2.161,0,0,1-3.982,1.68Zm64.664-8.031a2.16,2.16,0,1,1,2.16,2.16A2.16,2.16,0,0,1,224.85,5923.5Zm-14.41,0a2.16,2.16,0,1,1,2.16,2.16A2.16,2.16,0,0,1,210.44,5923.5Zm-14.41,0a2.16,2.16,0,1,1,2.16,2.16A2.16,2.16,0,0,1,196.03,5923.5Zm-14.4,0a2.16,2.16,0,1,1,2.16,2.16A2.159,2.159,0,0,1,181.631,5923.5Zm-14.411,0a2.16,2.16,0,1,1,2.161,2.16A2.161,2.161,0,0,1,167.219,5923.5Zm-28.809,0a2.16,2.16,0,1,1,2.16,2.16A2.16,2.16,0,0,1,138.41,5923.5Zm-14.41,0a2.16,2.16,0,1,1,2.16,2.16A2.16,2.16,0,0,1,124,5923.5Zm30.973,2.157a2.163,2.163,0,0,1-1.992-1.318,2.166,2.166,0,0,1,0-1.68,2.164,2.164,0,0,1,1.992-1.317h0a2.157,2.157,0,1,1,0,4.315Zm62.667-9.347a2.16,2.16,0,1,1,2.16,2.16A2.16,2.16,0,0,1,217.64,5916.31Zm-14.4,0a2.16,2.16,0,1,1,2.161,2.16A2.161,2.161,0,0,1,203.239,5916.31Zm-14.41,0a2.16,2.16,0,1,1,2.16,2.16A2.16,2.16,0,0,1,188.83,5916.31Zm-43.219,0a2.16,2.16,0,1,1,2.16,2.16A2.159,2.159,0,0,1,145.61,5916.31Zm-14.41,0a2.16,2.16,0,1,1,2.16,2.16A2.159,2.159,0,0,1,131.2,5916.31Zm43.222,0a2.161,2.161,0,1,1,2.161,2.158A2.16,2.16,0,0,1,174.423,5916.307Zm-14.237.84a2.161,2.161,0,0,1,3.982-1.68,2.161,2.161,0,0,1-3.982,1.68Zm50.255-8.027a2.16,2.16,0,1,1,2.16,2.16A2.16,2.16,0,0,1,210.44,5909.12Zm-14.41,0a2.16,2.16,0,1,1,2.16,2.16A2.16,2.16,0,0,1,196.03,5909.12Zm-14.4,0a2.16,2.16,0,1,1,2.16,2.16A2.159,2.159,0,0,1,181.631,5909.12Zm-14.411,0a2.16,2.16,0,1,1,2.161,2.16A2.161,2.161,0,0,1,167.219,5909.12Zm-14.41,0a2.16,2.16,0,1,1,2.161,2.16A2.161,2.161,0,0,1,152.809,5909.12Zm-14.4,0a2.16,2.16,0,1,1,2.16,2.16A2.16,2.16,0,0,1,138.41,5909.12Zm21.775-6.356a2.158,2.158,0,0,1,1.993-3,2.157,2.157,0,1,1-1.993,3Zm43.054-.844a2.16,2.16,0,1,1,2.161,2.16A2.161,2.161,0,0,1,203.239,5901.919Zm-14.41,0a2.16,2.16,0,1,1,2.16,2.16A2.16,2.16,0,0,1,188.83,5901.919Zm-14.41,0a2.16,2.16,0,1,1,2.16,2.16A2.16,2.16,0,0,1,174.42,5901.919Zm-28.809,0a2.16,2.16,0,1,1,2.16,2.16A2.159,2.159,0,0,1,145.61,5901.919Zm50.42-7.19a2.16,2.16,0,1,1,2.16,2.16A2.16,2.16,0,0,1,196.03,5894.729Zm-14.4,0a2.16,2.16,0,1,1,2.16,2.16A2.159,2.159,0,0,1,181.631,5894.729Zm-14.411,0a2.16,2.16,0,1,1,2.161,2.16A2.161,2.161,0,0,1,167.219,5894.729Zm-12.246,2.16a2.157,2.157,0,1,1,0-4.315h0a2.157,2.157,0,1,1,0,4.315Zm33.856-9.35a2.16,2.16,0,1,1,2.16,2.16A2.16,2.16,0,0,1,188.83,5887.54Zm-14.407,0a2.161,2.161,0,1,1,2.161,2.157A2.16,2.16,0,0,1,174.423,5887.54Zm-14.237.84a2.161,2.161,0,1,1,4.153-.84,2.163,2.163,0,0,1-4.153.84Zm21.445-8.03a2.16,2.16,0,1,1,2.16,2.16A2.159,2.159,0,0,1,181.631,5880.35Zm-14.411,0a2.16,2.16,0,1,1,2.161,2.16A2.161,2.161,0,0,1,167.219,5880.35Zm7.2-7.19a2.16,2.16,0,1,1,2.16,2.16A2.16,2.16,0,0,1,174.42,5873.16Z" transform="translate(-124 -5871)" fill="#34c3ff"/>
</svg>
