<svg xmlns="http://www.w3.org/2000/svg" width="19.999" height="20" viewBox="0 0 19.999 20">
  <path id="Shape_16" data-name="Shape 16" d="M1348,6016a10,10,0,0,1,16.211-7.84.833.833,0,1,1-1.037,1.3,8.241,8.241,0,0,0-5.174-1.8,8.333,8.333,0,1,0,8.333,8.333,8.248,8.248,0,0,0-.824-3.625.833.833,0,1,1,1.5-.726A9.9,9.9,0,0,1,1368,6016a10,10,0,0,1-20,0Zm10,.833a.834.834,0,0,1-.833-.833v-5.833a.833.833,0,1,1,1.667,0v5h3.333a.833.833,0,1,1,0,1.667Z" transform="translate(-1348 -6005.999)" fill="#8d8d8d"/>
</svg>
