<svg xmlns="http://www.w3.org/2000/svg" width="8.991" height="9.981" viewBox="0 0 8.991 9.981">
  <path id="angle_right" d="M4.133,9.881l-.466-.5a.331.331,0,0,1-.093-.23.327.327,0,0,1,.093-.23l3.659-3.93L3.667,1.06a.332.332,0,0,1,0-.46L4.133.1A.279.279,0,0,1,4.56.1L8.9,4.76a.329.329,0,0,1,.093.23A.323.323,0,0,1,8.9,5.22L4.56,9.881a.279.279,0,0,1-.427,0Zm-3.575,0-.465-.5A.332.332,0,0,1,0,9.151a.327.327,0,0,1,.093-.23L3.75,4.991.093,1.06a.332.332,0,0,1,0-.46L.558.1A.28.28,0,0,1,.986.1L5.324,4.76a.326.326,0,0,1,.094.23.32.32,0,0,1-.094.229L.986,9.881a.28.28,0,0,1-.428,0Z" fill="#727272"/>
</svg>
