<svg xmlns="http://www.w3.org/2000/svg" xmlns:xlink="http://www.w3.org/1999/xlink" width="93.994" height="106.997" viewBox="0 0 93.994 106.997">
  <defs>
    <filter id="shape_3" x="0" y="0" width="93.994" height="106.997" filterUnits="userSpaceOnUse">
      <feOffset dy="5" input="SourceAlpha"/>
      <feGaussianBlur stdDeviation="2.5" result="blur"/>
      <feFlood flood-color="#fe3e57" flood-opacity="0.4"/>
      <feComposite operator="in" in2="blur"/>
      <feComposite in="SourceGraphic"/>
    </filter>
  </defs>
  <g transform="matrix(1, 0, 0, 1, 0, 0)" filter="url(#shape_3)">
    <path id="shape_3-2" data-name="shape_3" d="M178.263,742.47c.033-.129,3.191-13.049-4-23.587-5.039-7.385-13.907-11.919-26.356-13.476-12.627-1.579-21.672-6.359-26.886-14.206-8.057-12.127-4.019-27.028-3.843-27.656l2.052.574c-.04.145-3.944,14.615,3.575,25.915,4.856,7.3,13.391,11.759,25.366,13.256,13.093,1.638,22.468,6.486,27.865,14.409,7.728,11.346,4.435,24.733,4.291,25.3Zm13.86-12.545c.032-.129,3.191-13.049-4-23.587-5.038-7.385-13.906-11.919-26.356-13.476-12.626-1.579-21.672-6.359-26.886-14.206-8.057-12.127-4.019-27.028-3.843-27.655l2.053.573c-.041.146-3.945,14.615,3.575,25.916,4.856,7.3,13.39,11.758,25.366,13.256,13.093,1.637,22.468,6.485,27.865,14.408,7.728,11.347,4.435,24.733,4.291,25.3Z" transform="translate(-108.51 -648.5)" fill="#fe3e57"/>
  </g>
</svg>
