<svg xmlns="http://www.w3.org/2000/svg" width="13" height="125" viewBox="0 0 13 125">
  <path id="Shape_6" data-name="Shape 6" d="M1611,521a2.061,2.061,0,1,1,2.06,2A2.031,2.031,0,0,1,1611,521Zm0-10.98a2.061,2.061,0,1,1,2.06,2A2.031,2.031,0,0,1,1611,510.02Zm0-10.98a2.061,2.061,0,1,1,2.06,2A2.031,2.031,0,0,1,1611,499.04Zm0-10.98a2.061,2.061,0,1,1,2.06,2A2.031,2.031,0,0,1,1611,488.06Zm8.88-.221a2.06,2.06,0,1,1,2.06,2A2.03,2.03,0,0,1,1619.88,487.84ZM1611,477.08a2.061,2.061,0,1,1,2.06,2A2.031,2.031,0,0,1,1611,477.08Zm8.88-.22a2.06,2.06,0,1,1,2.06,2A2.03,2.03,0,0,1,1619.88,476.86ZM1611,466.1a2.061,2.061,0,1,1,2.06,2A2.031,2.031,0,0,1,1611,466.1Zm8.88-.22a2.06,2.06,0,1,1,2.06,2A2.03,2.03,0,0,1,1619.88,465.88ZM1611,455.12a2.061,2.061,0,1,1,2.06,2A2.031,2.031,0,0,1,1611,455.12Zm8.88-.221a2.06,2.06,0,1,1,2.06,2A2.03,2.03,0,0,1,1619.88,454.9ZM1611,444.14a2.061,2.061,0,1,1,2.06,2A2.031,2.031,0,0,1,1611,444.14Zm8.88-.22a2.06,2.06,0,1,1,2.06,2A2.03,2.03,0,0,1,1619.88,443.92ZM1611,433.16a2.061,2.061,0,1,1,2.06,2A2.031,2.031,0,0,1,1611,433.16Zm8.88-.221a2.06,2.06,0,1,1,2.06,2A2.03,2.03,0,0,1,1619.88,432.94Zm0-10.98a2.061,2.061,0,1,1,2.06,2A2.03,2.03,0,0,1,1619.88,421.96Zm0-10.98a2.06,2.06,0,1,1,2.06,2A2.03,2.03,0,0,1,1619.88,410.98Zm0-10.98a2.06,2.06,0,1,1,2.06,2A2.03,2.03,0,0,1,1619.88,400Z" transform="translate(-1611 -398)" fill="#ccccce"/>
</svg>
