<svg xmlns="http://www.w3.org/2000/svg" width="60" height="60" viewBox="0 0 60 60">
  <g id="Icon" transform="translate(-415 -990)">
    <rect id="Icon_bg" width="60" height="60" transform="translate(415 990)" fill="#ffb534"/>
    <path id="icon-2" data-name="icon" d="M454.393,1029.083c0-.014,0-.029,0-.041H440.278c0,.013,0,.027,0,.041a3.967,3.967,0,0,1-7.934,0c0-.014,0-.029,0-.041h-3.383a1.289,1.289,0,0,1-1.294-1.28V1026.4h-2.046a.619.619,0,1,1,0-1.238h6.013a.619.619,0,1,1,0,1.238h-2.714v1.362a.041.041,0,0,0,.041.041h3.6a3.981,3.981,0,0,1,7.5,0h13v-4.662a.626.626,0,0,1,1.253,0v4.662h.3a3.982,3.982,0,0,1,7.5,0h1.638v-2.723h-.71a1.953,1.953,0,0,1-1.963-1.939v-1.321a.623.623,0,0,1,.626-.618h1.948a2.048,2.048,0,0,0-1.946-1.4h-7.393v.7a.626.626,0,0,1-1.253,0v-11.223a.041.041,0,0,0-.041-.041H428.963a.042.042,0,0,0-.041.041V1020.5a.626.626,0,0,1-1.253,0v-11.222a1.288,1.288,0,0,1,1.294-1.279h24.052a1.288,1.288,0,0,1,1.294,1.279v1.362h4.719a2.618,2.618,0,0,1,2.631,2.6v.66a.622.622,0,0,1-.5.606l1.036,4.093a3.278,3.278,0,0,1,2.8,3.222v6.6a.624.624,0,0,1-.626.619h-2.048c0,.013,0,.027,0,.041a3.967,3.967,0,0,1-7.934,0Zm1.253,0a2.714,2.714,0,1,0,2.714-2.683A2.7,2.7,0,0,0,455.646,1029.083Zm-22.047,0a2.715,2.715,0,1,0,2.714-2.683A2.7,2.7,0,0,0,433.6,1029.083Zm28.728-5.942a.707.707,0,0,0,.71.7h.71v-1.4h-1.42Zm-8.017-4.579H460.9l-1.023-4.045h-5.566Zm0-5.282h6.1v-.04a1.372,1.372,0,0,0-1.378-1.363h-4.719Zm2.761,15.8a1.29,1.29,0,1,1,1.29,1.281A1.285,1.285,0,0,1,457.07,1029.08Zm-22.05,0a1.29,1.29,0,1,1,1.29,1.281A1.285,1.285,0,0,1,435.02,1029.08Zm6.629-2.68a.62.62,0,1,1,0-1.239h9.37a.62.62,0,1,1,0,1.239Zm-14.691-2.64a.619.619,0,1,1,0-1.238h8.017a.619.619,0,1,1,0,1.238Zm12.919-2.823-3.341-3.3a.614.614,0,0,1,0-.876.631.631,0,0,1,.886,0l2.9,2.864,5.57-5.5a.631.631,0,0,1,.886,0,.613.613,0,0,1,0,.875l-6.013,5.941a.63.63,0,0,1-.886,0Z" fill="#fff"/>
  </g>
</svg>
