<svg xmlns="http://www.w3.org/2000/svg" width="60" height="60" viewBox="0 0 60 60">
  <g id="Icon" transform="translate(-815 -990)">
    <rect id="Icon_bg" width="60" height="60" transform="translate(815 990)" fill="#34c3ff"/>
    <path id="Icon-2" data-name="Icon" d="M834,1020.5a12.444,12.444,0,0,1,12.358-12.5,12.275,12.275,0,0,1,9.07,4.018l.121-1.685,1.451.107-.308,4.281-4.234-.312.106-1.467,1.85.137a10.828,10.828,0,0,0-8.057-3.606,11.029,11.029,0,1,0,9.058,17.162l1.207.82A12.315,12.315,0,0,1,846.358,1033,12.443,12.443,0,0,1,834,1020.5Zm19.289,1.624a1.326,1.326,0,0,0,.335-.077.92.92,0,0,0,.35-.244.215.215,0,0,0,.055-.128.365.365,0,0,0-.044-.161l-1.057-2.471h1.156l.356,1.181c.043.155.1.376.137.509h.022c.039-.144.082-.365.115-.509l.268-1.181h1.129l-.57,1.557a4.328,4.328,0,0,1-1.09,2.018,1.691,1.691,0,0,1-.97.382Zm-3.347-1.147c0-.732.647-1.069,1.666-1.069v-.017c0-.1-.066-.221-.472-.221a1.86,1.86,0,0,0-.816.216l-.18-.653a2.519,2.519,0,0,1,1.177-.256c.926,0,1.32.472,1.32,1.2v.914a3.917,3.917,0,0,0,.044.676h-.932l-.055-.232h-.022a1.011,1.011,0,0,1-.789.3A.879.879,0,0,1,849.942,1020.975Zm1.025-.1c0,.156.1.245.3.245a.4.4,0,0,0,.367-.283.684.684,0,0,0,.011-.15v-.149C851.186,1020.538,850.967,1020.654,850.967,1020.875Zm-8.283.958c-1.068,0-1.5-.881-1.5-1.867s.428-1.867,1.5-1.867,1.5.886,1.5,1.867-.427,1.867-1.5,1.867Zm-.465-1.867c0,.765.186,1.114.471,1.114h.005c.28,0,.466-.349.466-1.114s-.186-1.107-.472-1.107S842.219,1019.2,842.219,1019.966Zm-4.366,1.58.213-.77a2.4,2.4,0,0,0,.948.244c.356,0,.608-.106.608-.366s-.3-.41-.625-.41h-.46v-.737h.444c.24,0,.553-.077.553-.31,0-.172-.175-.288-.509-.288a2.036,2.036,0,0,0-.859.233l-.22-.743a2.727,2.727,0,0,1,1.31-.3c.822,0,1.331.388,1.331.925a.858.858,0,0,1-.7.842v.011a.872.872,0,0,1,.816.842c0,.7-.657,1.113-1.611,1.113A2.46,2.46,0,0,1,837.853,1021.547Zm8.024.2v-3.662a8.873,8.873,0,0,1,1.3-.084,2.878,2.878,0,0,1,1.66.377,1.58,1.58,0,0,1,.734,1.413,1.812,1.812,0,0,1-.68,1.524,3.182,3.182,0,0,1-1.917.5A7.064,7.064,0,0,1,845.878,1021.746Zm1.036-2.926V1021a1.679,1.679,0,0,0,.241.011c.756.012,1.309-.348,1.309-1.164,0-.742-.52-1.052-1.188-1.052A1.927,1.927,0,0,0,846.914,1018.82Z" fill="#fff"/>
  </g>
</svg>
