<svg xmlns="http://www.w3.org/2000/svg" width="75" height="60" viewBox="0 0 75 60">
  <g id="Vector_Smart_Object" data-name="Vector Smart Object" transform="translate(-976.087 -122.162)">
    <g id="Сгруппировать_8" data-name="Сгруппировать 8">
      <g id="Сгруппировать_6" data-name="Сгруппировать 6">
        <path id="Контур_61" data-name="Контур 61" d="M981.792,172.3a2,2,0,0,1,.441,1.291,2.047,2.047,0,0,1-.683,1.627,2.925,2.925,0,0,1-1.982.6h-3.481v-8.178H979.5a2.893,2.893,0,0,1,1.889.545,1.871,1.871,0,0,1,.661,1.528,1.919,1.919,0,0,1-.4,1.252,1.848,1.848,0,0,1-1.04.637A1.969,1.969,0,0,1,981.792,172.3Zm-4.084-1.234h1.458a1.384,1.384,0,0,0,.925-.271.978.978,0,0,0,.316-.782,1,1,0,0,0-.31-.787,1.393,1.393,0,0,0-.953-.278h-1.436Zm2.527,3.133a1.009,1.009,0,0,0,.345-.828,1.035,1.035,0,0,0-.351-.839,1.5,1.5,0,0,0-.994-.3h-1.528v2.247h1.539A1.514,1.514,0,0,0,980.235,174.2Z" fill="#868686"/>
        <path id="Контур_62" data-name="Контур 62" d="M988.747,175.819l-1.9-3.186h-.712v3.186H984.52v-8.178h3.091a3.034,3.034,0,0,1,2.153.695,2.62,2.62,0,0,1,.23,3.382,2.519,2.519,0,0,1-1.476.834l2.022,3.267Zm-2.608-4.309h1.333q1.391,0,1.39-1.24a1.224,1.224,0,0,0-.339-.921,1.455,1.455,0,0,0-1.051-.33h-1.333Z" fill="#868686"/>
        <path id="Контур_63" data-name="Контур 63" d="M997.685,174.174h-3.251l-.574,1.645h-1.712l2.987-8.086h1.85l2.976,8.086h-1.712Zm-.436-1.24-1.2-3.451-1.194,3.451Z" fill="#868686"/>
        <path id="Контур_64" data-name="Контур 64" d="M1008.853,175.819h-1.62l-3.63-5.561v5.561h-1.62v-8.178h1.62l3.63,5.607v-5.607h1.62Z" fill="#868686"/>
        <path id="Контур_65" data-name="Контур 65" d="M1018.1,173.861a3.53,3.53,0,0,1-1.464,1.442,4.746,4.746,0,0,1-2.281.516h-2.883v-8.178h2.883a4.84,4.84,0,0,1,2.281.5,3.467,3.467,0,0,1,1.464,1.424,4.8,4.8,0,0,1,0,4.292Zm-1.855-.2a3.013,3.013,0,0,0,0-3.9,2.8,2.8,0,0,0-2.027-.695h-1.127v5.294h1.127A2.8,2.8,0,0,0,1016.245,173.664Z" fill="#868686"/>
      </g>
      <path id="Контур_66" data-name="Контур 66" d="M998.7,122.162s20.915,7.962,20.471,19.482h.007v19.482s-20.915-7.961-20.471-19.482H998.7Z" fill="#868686"/>
      <g id="Сгруппировать_7" data-name="Сгруппировать 7">
        <path id="Контур_67" data-name="Контур 67" d="M1037.8,156.567a28.445,28.445,0,0,1,13.285-4.937v-6.1a27.3,27.3,0,0,0-13.285,11.037Z" fill="#868686"/>
        <path id="Контур_68" data-name="Контур 68" d="M1035.426,158.4a28.492,28.492,0,0,1,15.661-14.152V126.677s-29.783,11.337-29.151,27.743h-.01v27.742s1.329-.507,3.415-1.457c-.007-.89.021-1.785.095-2.683A28.9,28.9,0,0,1,1035.426,158.4Z" fill="#868686"/>
        <path id="Контур_69" data-name="Контур 69" d="M1032.6,168.709a28.993,28.993,0,0,1,1.041-5.679,26.891,26.891,0,0,0-6.228,15.156c-.042.529-.066,1.056-.079,1.582,1.692-.821,3.66-1.842,5.728-3.044A28.852,28.852,0,0,1,1032.6,168.709Z" fill="#868686"/>
        <path id="Контур_70" data-name="Контур 70" d="M1033.781,168.807a27.648,27.648,0,0,0,.367,7.273c8.137-4.909,17.283-12.492,16.93-21.66h.01v-.781a26.619,26.619,0,0,0-15.483,7.29A27.564,27.564,0,0,0,1033.781,168.807Z" fill="#868686"/>
      </g>
    </g>
  </g>
</svg>
