<svg xmlns="http://www.w3.org/2000/svg" width="60" height="60" viewBox="0 0 60 60">
  <g id="Vector_Smart_Object" data-name="Vector Smart Object" transform="translate(-495.267 -710.928)">
    <g id="Сгруппировать_5" data-name="Сгруппировать 5">
      <path id="Контур_51" data-name="Контур 51" d="M498.27,768.236a1.756,1.756,0,0,0,.4-.2,1.2,1.2,0,0,0,.274-.26,1,1,0,0,0,.156-.305,1.154,1.154,0,0,0,.05-.337,1.516,1.516,0,0,0-.108-.582,1.068,1.068,0,0,0-.347-.442,1.713,1.713,0,0,0-.614-.282,3.62,3.62,0,0,0-.913-.1h-1.9v5.2h2.067a2.633,2.633,0,0,0,.828-.12,1.748,1.748,0,0,0,.608-.332,1.409,1.409,0,0,0,.375-.5,1.5,1.5,0,0,0,.127-.617,1.055,1.055,0,0,0-.244-.719A1.423,1.423,0,0,0,498.27,768.236Zm-1.8-1.606h.7a1.651,1.651,0,0,1,.35.032.6.6,0,0,1,.243.106.447.447,0,0,1,.142.2.892.892,0,0,1,.046.309.75.75,0,0,1-.058.314.47.47,0,0,1-.171.2.763.763,0,0,1-.272.1,2.009,2.009,0,0,1-.358.029h-.625Zm1.587,2.952a.53.53,0,0,1-.117.218.624.624,0,0,1-.236.158,1.059,1.059,0,0,1-.389.061h-.845v-1.3h.838a1.39,1.39,0,0,1,.376.042.632.632,0,0,1,.24.121.432.432,0,0,1,.127.193.827.827,0,0,1,.038.257A.942.942,0,0,1,498.054,769.581Z" fill="#868686"/>
      <path id="Контур_52" data-name="Контур 52" d="M504.293,768.9a1.117,1.117,0,0,0-.225-.15,1.768,1.768,0,0,0,.446-.247,1.564,1.564,0,0,0,.326-.341,1.434,1.434,0,0,0,.2-.416,1.716,1.716,0,0,0-.046-1.093,1.229,1.229,0,0,0-.364-.488,1.806,1.806,0,0,0-.646-.323,3.431,3.431,0,0,0-.957-.117h-1.684v5.2h1.2V769h.3a.439.439,0,0,1,.215.042.371.371,0,0,1,.134.143l.858,1.51a.461.461,0,0,0,.433.229h1.087l-1.1-1.81A.882.882,0,0,0,504.293,768.9Zm-.407-1.223a.666.666,0,0,1-.159.26.752.752,0,0,1-.283.173,1.208,1.208,0,0,1-.416.063h-.483v-1.542h.483a1.032,1.032,0,0,1,.687.192.674.674,0,0,1,.222.536A.967.967,0,0,1,503.886,767.677Z" fill="#868686"/>
      <path id="Контур_53" data-name="Контур 53" d="M509.07,765.725l-2,5.2h.938a.394.394,0,0,0,.251-.08.41.41,0,0,0,.139-.181l.3-.907h1.968l.3.907a.376.376,0,0,0,.141.188.426.426,0,0,0,.258.073h.929l-2-5.2Zm-.092,3.214.476-1.418c.035-.09.073-.2.114-.321s.078-.258.117-.4c.04.143.081.276.123.4s.076.229.107.319l.476,1.425Z" fill="#868686"/>
      <path id="Контур_54" data-name="Контур 54" d="M517.6,768.479c0,.082,0,.171.007.265s.011.191.022.292l-2.458-3.125a.891.891,0,0,0-.089-.1.334.334,0,0,0-.082-.055.345.345,0,0,0-.1-.026.849.849,0,0,0-.131-.008h-.632v5.2H515.2V768.14c0-.077,0-.158-.007-.245s-.01-.176-.018-.266l2.439,3.1a.512.512,0,0,0,.184.158.6.6,0,0,0,.235.042h.624v-5.2H517.6Z" fill="#868686"/>
      <path id="Контур_55" data-name="Контур 55" d="M524.883,766.465a2.513,2.513,0,0,0-.846-.543,2.973,2.973,0,0,0-1.1-.2h-2.01v5.2h2.01a3,3,0,0,0,1.1-.194,2.48,2.48,0,0,0,.846-.543,2.43,2.43,0,0,0,.546-.824,2.891,2.891,0,0,0,0-2.079A2.415,2.415,0,0,0,524.883,766.465Zm-.589,2.56a1.483,1.483,0,0,1-.285.527,1.233,1.233,0,0,1-.457.332,1.532,1.532,0,0,1-.614.117h-.8v-3.346h.8a1.532,1.532,0,0,1,.614.117,1.245,1.245,0,0,1,.457.332,1.492,1.492,0,0,1,.285.527,2.512,2.512,0,0,1,0,1.4Z" fill="#868686"/>
      <path id="Контур_56" data-name="Контур 56" d="M533.865,768.479c0,.082,0,.171.008.265s.011.191.02.292l-2.456-3.125a.885.885,0,0,0-.089-.1.334.334,0,0,0-.082-.055.346.346,0,0,0-.1-.026.864.864,0,0,0-.132-.008h-.632v5.2h1.058V768.14c0-.077,0-.158-.008-.245s-.01-.176-.017-.266l2.439,3.1a.512.512,0,0,0,.184.158.6.6,0,0,0,.235.042h.624v-5.2h-1.058Z" fill="#868686"/>
      <path id="Контур_57" data-name="Контур 57" d="M538.779,765.725l-2,5.2h.938a.408.408,0,0,0,.39-.261l.306-.907h1.967l.306.907a.38.38,0,0,0,.14.188.426.426,0,0,0,.258.073h.93l-2-5.2Zm-.092,3.214.475-1.418c.036-.09.074-.2.114-.321s.08-.258.117-.4c.041.143.082.276.123.4s.077.229.108.319l.476,1.425Z" fill="#868686"/>
      <path id="Контур_58" data-name="Контур 58" d="M548.612,765.729a.3.3,0,0,0-.1.018.251.251,0,0,0-.084.056.429.429,0,0,0-.073.105l-1.328,2.631c-.048.093-.093.189-.139.288s-.088.2-.127.305c-.041-.1-.082-.2-.126-.3s-.089-.191-.136-.282l-1.331-2.641a.463.463,0,0,0-.073-.105.252.252,0,0,0-.084-.056.3.3,0,0,0-.1-.018h-1.053v5.2h1.058v-2.992c0-.07,0-.145-.007-.227s-.013-.165-.022-.248l1.378,2.679a.44.44,0,0,0,.172.189.467.467,0,0,0,.247.064h.164a.47.47,0,0,0,.247-.064.447.447,0,0,0,.172-.189l1.371-2.675c-.015.169-.022.327-.022.472v2.992h1.058v-5.2h-1.053Z" fill="#868686"/>
      <path id="Контур_59" data-name="Контур 59" d="M555.267,766.654v-.928h-3.33v5.2h3.33V770h-2.123v-1.239h1.626v-.893h-1.626v-1.214Z" fill="#868686"/>
      <path id="Контур_60" data-name="Контур 60" d="M548.244,751.149l-7.862-13.694,6.674-11.626a1.378,1.378,0,0,0-1.187-2.068H532.522l-7.367-12.832-7.366,12.832H504.44a1.379,1.379,0,0,0-1.187,2.068l6.675,11.626-7.862,13.694h15.722l6.179,10.765a1.367,1.367,0,0,0,2.375,0l6.179-10.765Zm-3.354-25.441-5.626,9.8-5.625-9.8Zm-13.068,22.764H519.536l-4.083-7.114,6.32-11.012L532,748.162Zm-10.98-19.748-6.321,11.011-1.3-2.275,6.32-11.011Zm-15.421-3.016H516.67l-5.624,9.8Zm19.734,34.378-5.13-8.937h10.26Z" fill="#868686"/>
    </g>
  </g>
</svg>
